<?xml version="1.0" encoding="UTF-8"?>
<svg version="1.1" xmlns="http://www.w3.org/2000/svg" width="448" height="262">
<path d="M0 0 C2.475 0.495 2.475 0.495 5 1 C5.00386719 2.66675781 5.00386719 2.66675781 5.0078125 4.3671875 C5.17578325 12.80748064 5.52065171 19.09142136 10.72265625 26.1171875 C12 28 12 28 12 31 C15.43583216 29.58524558 18.62392518 28.22564489 21.8125 26.3125 C24 25 24 25 26 25 C26.495 23.515 26.495 23.515 27 22 C27.721875 21.443125 28.44375 20.88625 29.1875 20.3125 C32.33222029 17.7268411 34.30654241 14.96220205 36.5703125 11.609375 C37.04210937 11.07828125 37.51390625 10.5471875 38 10 C38.99 10 39.98 10 41 10 C40.64466708 16.27754819 38.89634588 20.93456619 36.15625 26.58203125 C33.67511098 31.7706294 33.81650983 36.23718435 33.8125 41.875 C33.80025391 42.77347656 33.78800781 43.67195313 33.77539062 44.59765625 C33.76527024 49.1653227 33.80929231 52.86103448 36 57 C36.66 57 37.32 57 38 57 C39.80913922 54.23388537 41.41786842 51.37709893 43.05078125 48.50390625 C45 46 45 46 47.73046875 45.15234375 C48.47941406 45.10207031 49.22835937 45.05179688 50 45 C49.89042969 45.53625 49.78085937 46.0725 49.66796875 46.625 C49.32259294 48.33222351 48.98349494 50.04072148 48.6484375 51.75 C48.17376092 54.12910192 47.67564336 56.50355976 47.1640625 58.875 C45.57198861 66.45794204 44.52918767 73.29185391 46 81 C48.76498104 96.17667368 46.09405538 110.35891693 37.5078125 123.23828125 C30.16156298 133.30975236 21.61822348 138.12725884 10 142 C-5.67491261 143.33524987 -18.78219318 142.14746645 -31.40795898 132.12084961 C-40.81204111 124.17412105 -46.99683919 114.35068579 -48.20263672 101.90917969 C-48.73217545 93.42525304 -48.2024117 85.93789283 -45 78 C-42.76489847 67.43406551 -43.14239786 57.2580308 -48.125 47.625 C-48.47820312 46.93664062 -48.83140625 46.24828125 -49.1953125 45.5390625 C-49.59363281 44.77722656 -49.59363281 44.77722656 -50 44 C-47.525 43.505 -47.525 43.505 -45 43 C-44.67 43.99 -44.34 44.98 -44 46 C-42.35965807 46.72904086 -40.68698082 47.38655243 -39 48 C-38.154375 48.515625 -37.30875 49.03125 -36.4375 49.5625 C-34.19026001 50.88779538 -32.50866856 51.4431074 -30 52 C-29.09429581 45.10381142 -28.8777016 38.38791455 -28.9375 31.4375 C-28.94201172 30.42880859 -28.94652344 29.42011719 -28.95117188 28.38085938 C-28.96283231 25.92050853 -28.97919622 23.46028761 -29 21 C-27.35 21 -25.7 21 -24 21 C-22.35 24.63 -20.7 28.26 -19 32 C-16.09245044 30.54622522 -15.49666189 28.14584175 -14.13720703 25.32177734 C-12.21864318 21.4047438 -10.06547267 17.61860403 -7.9375 13.8125 C-7.50373047 13.03197266 -7.06996094 12.25144531 -6.62304688 11.44726562 C-4.47535847 7.59319466 -2.30140948 3.76525683 0 0 Z M-3 18 C-10.82753476 27.14038078 -14.83215524 39.56914431 -14.30859375 51.5 C-13.93748245 54.50647127 -12.97455272 57.13725139 -12 60 C-10.98519733 67.23046899 -11.91281836 72.4372053 -15.94921875 78.53515625 C-18.28912917 81.34750572 -20.84967293 83.61849444 -23.625 86 C-29.57439153 91.18042256 -32.23184647 95.71378214 -33.36328125 103.5 C-33.76671508 110.87707579 -31.78391988 117.42771343 -27.234375 123.265625 C-21.68171111 129.168063 -15.97108306 132.58200077 -8 134 C-8.34933594 133.24074219 -8.69867188 132.48148437 -9.05859375 131.69921875 C-9.74115234 130.20841797 -9.74115234 130.20841797 -10.4375 128.6875 C-11.11619141 127.20830078 -11.11619141 127.20830078 -11.80859375 125.69921875 C-14.56150699 119.46229071 -15.00062687 113.73993671 -14 107 C-11.79475284 101.99537356 -8.97093534 97.57996317 -6 93 C-4.98330025 91.21775673 -3.98035241 89.42749233 -3 87.625 C-2.608125 86.91601562 -2.21625 86.20703125 -1.8125 85.4765625 C-1.544375 84.98929687 -1.27625 84.50203125 -1 84 C-0.01 84 0.98 84 2 84 C1.52251083 89.15290395 -1.16832912 92.48424708 -4 96.625 C-8.18289856 103.03892395 -10.75498393 108.13558402 -10 116 C-9.94328125 116.75410156 -9.8865625 117.50820312 -9.828125 118.28515625 C-8.74922528 125.56772938 -4.4650305 133.16718559 1.2265625 137.8203125 C2.10441406 138.40425781 2.10441406 138.40425781 3 139 C3.66 138.67 4.32 138.34 5 138 C5 137.34 5 136.68 5 136 C5.73347656 135.88914062 6.46695313 135.77828125 7.22265625 135.6640625 C13.61416752 134.13585305 19.78132932 129.28765796 23.78125 124.12109375 C28.9902258 115.0554724 28.2655584 104.31449769 27.97802734 94.22265625 C27.83940226 88.36649442 28.38690337 83.62736764 30 78 C30.62766153 73.06837373 30.05173474 68.84821019 28.5625 64.125 C26.09529209 55.99019655 26.25351197 47.43582936 26 39 C20.43863089 44.27010264 18.35932374 48.28698805 17.625 55.875 C17.73744434 59.07966382 18.49280048 61.77651288 19.5 64.8125 C21.85857951 72.12409647 22.26497883 80.03477422 19.18359375 87.21484375 C16.21235816 91.69621228 10.94439354 95.02224258 6 97 C5.01 96.67 4.02 96.34 3 96 C3.56589844 94.96359375 4.13179687 93.9271875 4.71484375 92.859375 C5.45596373 91.48971023 6.1968362 90.11991151 6.9375 88.75 C7.31068359 88.06808594 7.68386719 87.38617188 8.06835938 86.68359375 C8.42607422 86.01972656 8.78378906 85.35585937 9.15234375 84.671875 C9.48226318 84.0644043 9.81218262 83.45693359 10.15209961 82.83105469 C13.30253421 76.02763991 12.41270606 68.90191019 10.19140625 61.98046875 C8.3767082 57.4407487 6.15778288 53.11475216 3.86914062 48.796875 C0.04027599 41.48788482 -1.30845827 34.74642256 -1.625 26.5625 C-1.66367188 25.73556641 -1.70234375 24.90863281 -1.7421875 24.05664062 C-1.83553092 22.03808927 -1.91880961 20.01907669 -2 18 C-2.33 18 -2.66 18 -3 18 Z M-34 65 C-34.12117187 65.70125 -34.24234375 66.4025 -34.3671875 67.125 C-35.89658366 75.78373517 -35.89658366 75.78373517 -37.1875 79.9375 C-38.61350848 85.23252375 -37.66171465 90.63474608 -37 96 C-31.59170221 90.97968879 -27.61629462 84.63613826 -26.375 77.3125 C-27.15940766 73.15513938 -28.49043327 69.44121191 -31 66 C-31.99 65.67 -32.98 65.34 -34 65 Z M37 74 C30.74501299 82.43063466 31.76384177 93.04199472 32 103 C34.7403438 101.99520727 35.79714392 101.40743577 37.12060547 98.74926758 C38.03715319 95.88384727 38.23037257 93.69685469 38.1953125 90.69921875 C38.18886719 89.72275391 38.18242187 88.74628906 38.17578125 87.74023438 C38.15902344 86.73283203 38.14226562 85.72542969 38.125 84.6875 C38.11597656 83.66076172 38.10695313 82.63402344 38.09765625 81.57617188 C38.07416201 79.05054101 38.04131131 76.5253919 38 74 C37.67 74 37.34 74 37 74 Z " fill="#FF780F" transform="translate(233,20)"/>
<path d="M0 0 C0.99 0.99 1.98 1.98 3 3 C2.66226563 3.71285156 2.32453125 4.42570312 1.9765625 5.16015625 C-3.36929543 16.63984539 -6.29495557 26.65200272 -2 39 C-1.23769248 46.46061625 -2.03308267 52.23676719 -6.8046875 58.2890625 C-9.61106431 61.54022356 -12.34669813 64.49517582 -15.75 67.125 C-19.22212134 70.01843445 -21.60574632 73.58426905 -22.33740234 78.06738281 C-22.42804032 80.24569879 -22.39963028 82.38424291 -22.3125 84.5625 C-22.30283203 85.29146484 -22.29316406 86.02042969 -22.28320312 86.77148438 C-22.19705284 90.93291759 -21.79595211 94.90375863 -21 99 C-20.01 99 -19.02 99 -18 99 C-16.4921875 100.57421875 -16.4921875 100.57421875 -14.875 102.6875 C-10.36107229 108.0927128 -4.91398465 111.51731706 2 113 C1.65066406 112.31292969 1.30132812 111.62585938 0.94140625 110.91796875 C0.48636719 110.01691406 0.03132813 109.11585938 -0.4375 108.1875 C-0.88996094 107.29417969 -1.34242188 106.40085937 -1.80859375 105.48046875 C-4.71475523 99.42993583 -4.97305014 93.59433978 -4 87 C-1.81449286 81.97821436 1.00212672 77.57202538 4 73 C5.17460624 71.04641849 6.34230489 69.08865032 7.5 67.125 C8.33176394 65.74905008 9.16442311 64.37363776 10 63 C11.32 63.33 12.64 63.66 14 64 C13.52251083 69.15290395 10.83167088 72.48424708 8 76.625 C3.81710144 83.03892395 1.24501607 88.13558402 2 96 C2.05671875 96.75410156 2.1134375 97.50820312 2.171875 98.28515625 C3.40842437 106.6318645 9.00879926 113.45191095 14 120 C12.22631653 121.77368347 9.71104575 121.1727488 7.3125 121.1875 C2.75423591 121.15517189 -0.7363614 120.68562456 -5 119 C-6.07765625 118.90332031 -7.1553125 118.80664062 -8.265625 118.70703125 C-12.50671094 117.90406414 -15.1502977 116.27026044 -18.4375 113.625 C-18.99880615 113.17874268 -19.5601123 112.73248535 -20.13842773 112.27270508 C-29.7192515 104.3619458 -35.98589077 94.46365232 -37.20263672 81.90917969 C-37.73217545 73.42525304 -37.2024117 65.93789283 -34 58 C-31.76489847 47.43406551 -32.14239786 37.2580308 -37.125 27.625 C-37.65480469 26.59246094 -37.65480469 26.59246094 -38.1953125 25.5390625 C-38.46085938 25.03117187 -38.72640625 24.52328125 -39 24 C-37.35 23.67 -35.7 23.34 -34 23 C-33.67 23.99 -33.34 24.98 -33 26 C-31.35965807 26.72904086 -29.68698082 27.38655243 -28 28 C-27.154375 28.515625 -26.30875 29.03125 -25.4375 29.5625 C-23.19026001 30.88779538 -21.50866856 31.4431074 -19 32 C-18.09429581 25.10381142 -17.8777016 18.38791455 -17.9375 11.4375 C-17.94201172 10.42880859 -17.94652344 9.42011719 -17.95117188 8.38085938 C-17.96283231 5.92050853 -17.97919622 3.46028761 -18 1 C-16.35 1 -14.7 1 -13 1 C-10.525 6.445 -10.525 6.445 -8 12 C-5.46796138 10.73398069 -5.18640935 9.65538869 -4 7.125 C-2.78798161 4.55892982 -1.58730868 2.38096302 0 0 Z M-23 45 C-23.12117187 45.70125 -23.24234375 46.4025 -23.3671875 47.125 C-24.89658366 55.78373517 -24.89658366 55.78373517 -26.1875 59.9375 C-27.61350848 65.23252375 -26.66171465 70.63474608 -26 76 C-20.59170221 70.97968879 -16.61629462 64.63613826 -15.375 57.3125 C-16.15940766 53.15513938 -17.49043327 49.44121191 -20 46 C-20.99 45.67 -21.98 45.34 -23 45 Z " fill="#FF7B14" transform="translate(222,40)"/>
<path d="M0 0 C10.56 0 21.12 0 32 0 C30.87527902 7.87304688 30.87527902 7.87304688 28.3046875 10.8671875 C27.7569165 11.52074219 27.20914551 12.17429688 26.64477539 12.84765625 C26.06074951 13.51667969 25.47672363 14.18570313 24.875 14.875 C23.68302134 16.28858002 22.49161027 17.70263886 21.30078125 19.1171875 C20.44154053 20.12410645 20.44154053 20.12410645 19.56494141 21.15136719 C14.43649877 27.20949006 9.74205146 33.63871145 5 40 C11.27 40.33 17.54 40.66 24 41 C24.33 39.68 24.66 38.36 25 37 C25.60164844 35.69293595 26.24645247 34.40514678 26.92578125 33.13671875 C27.31056641 32.41419922 27.69535156 31.69167969 28.09179688 30.94726562 C28.49462891 30.20154297 28.89746094 29.45582031 29.3125 28.6875 C29.70373047 27.95337891 30.09496094 27.21925781 30.49804688 26.46289062 C32.30817956 23.07977365 34.14742434 19.71776767 36.05859375 16.390625 C38.0144493 12.9747646 39.8903251 9.53150896 41.75 6.0625 C42.36359375 4.91910156 42.9771875 3.77570313 43.609375 2.59765625 C44.06828125 1.74042969 44.5271875 0.88320312 45 0 C48.63 0 52.26 0 56 0 C57.67764668 10.98383767 59.26367472 21.86055125 59.7890625 32.96875 C59.98178654 35.73826585 60.44822451 38.28598235 61 41 C61.11678799 43.67678073 61.0454506 46.31841457 61 49 C57.7 49 54.4 49 51 49 C50.01 42.565 50.01 42.565 49 36 C43.42378575 35.28790596 43.42378575 35.28790596 38 36 C34.43236319 39.72543613 32.61368526 44.15894421 31 49 C21.6964667 50.05163702 12.59075236 49.95732226 3.25 49.5625 C1.85940029 49.50910279 0.46877512 49.45636464 -0.921875 49.40429688 C-4.28155688 49.27597569 -7.64083406 49.14108497 -11 49 C-10.37679724 43.63364059 -9.80366391 41.09626941 -5.9375 37.25 C-1.83199508 32.96231737 1.65002041 28.51601416 5.08203125 23.6796875 C7.45044778 20.37065747 9.94097558 17.17001915 12.45703125 13.97265625 C13.99811364 12.00241167 15.49918439 10.00108749 17 8 C11.06 8 5.12 8 -1 8 C-2 5 -2 5 0 0 Z M47 14 C45.35 18.29 43.7 22.58 42 27 C44.31 27 46.62 27 49 27 C49 22.71 49 18.42 49 14 C48.34 14 47.68 14 47 14 Z " fill="#FF7408" transform="translate(172,198)"/>
<path d="M0 0 C2.5 2.25 2.5 2.25 4 5 C3.58052205 12.41759788 -1.04223654 16.86276999 -6 22 C-20.12380308 34.12878756 -37.69669453 38.2419373 -56 37 C-59.38989309 36.51095254 -62.68859228 35.87265333 -66 35 C-65.67 33.35 -65.34 31.7 -65 30 C-58.4 30.33 -51.8 30.66 -45 31 C-45 30.34 -45 29.68 -45 29 C-45.99 29.33 -46.98 29.66 -48 30 C-54.55596773 30.46214199 -61.85545012 30.62960307 -68 28 C-70.0625 25.375 -70.0625 25.375 -71 23 C-71.53625 23.144375 -72.0725 23.28875 -72.625 23.4375 C-75.39915827 24.09453748 -78.18525388 24.55219948 -81 25 C-81.33 25.99 -81.66 26.98 -82 28 C-90.69242676 26.66036155 -96.95690157 20.74033467 -102.4453125 14.171875 C-104.50350991 11.29660425 -105.4857523 9.56218354 -105 6 C-102.06429982 2.44625768 -99.54378605 0.66702183 -94.9375 0.0625 C-89.54525777 0.34203095 -86.12389936 3.68753889 -82.17211914 7 C-69.78417379 17.19185948 -55.57128684 19.16548624 -40 18 C-36.22782876 17.21629484 -33.31739647 15.92623021 -30 14 C-28.98292969 13.45601562 -27.96585937 12.91203125 -26.91796875 12.3515625 C-21.59709959 9.40481755 -16.9769909 6.61844105 -13 2 C-8.75405405 -2.57255718 -5.75758451 -2.2222256 0 0 Z M-91 11 C-91 12.32 -91 13.64 -91 15 C-90.01 14.01 -89.02 13.02 -88 12 C-88.99 11.67 -89.98 11.34 -91 11 Z M-8 11 C-7.67 11.99 -7.34 12.98 -7 14 C-6.34 13.01 -5.68 12.02 -5 11 C-5.99 11 -6.98 11 -8 11 Z M-15 19 C-15 19.66 -15 20.32 -15 21 C-12.37812506 19.95125002 -11.20628639 19.35068687 -9.75 16.875 C-9.5025 16.25625 -9.255 15.6375 -9 15 C-11.31579505 15 -13.36598215 17.57547162 -15 19 Z M-41 25 C-41 25.99 -41 26.98 -41 28 C-40.34 27.34 -39.68 26.68 -39 26 C-39.66 25.67 -40.32 25.34 -41 25 Z " fill="#FF7B14" transform="translate(283,146)"/>
<path d="M0 0 C3.63 0 7.26 0 11 0 C13.475 18.81 13.475 18.81 16 38 C16.99 37.34 17.98 36.68 19 36 C21.125 36.1875 21.125 36.1875 23 37 C23.33 37.99 23.66 38.98 24 40 C26.34533951 40.76956136 26.34533951 40.76956136 29 41 C36.10842015 35.37682256 36.25936948 22.71064274 37.625 14.5 C38.05120141 11.96816069 38.48069993 9.4368734 38.9140625 6.90625 C39.0992041 5.79572266 39.2843457 4.68519531 39.47509766 3.54101562 C40 1 40 1 41 0 C44.33327842 -0.1424478 47.66453893 -0.04222103 51 0 C50.48695727 7.01974246 49.29714555 13.62326966 47.5625 20.4375 C46.14695215 26.08087028 44.83887114 31.59184164 44.125 37.375 C43.34754317 42.11522225 41.27389392 44.57994026 37.75390625 47.7578125 C33.18939321 50.99058566 27.34525206 50.60085315 22 50 C18.8125 48 18.8125 48 17 46 C16.67 46.99 16.34 47.98 16 49 C12.7 49 9.4 49 6 49 C4.90664122 44.62656486 4.46124155 40.48063218 4 36 C-0.29 36 -4.58 36 -9 36 C-9.45375 37.4025 -9.9075 38.805 -10.375 40.25 C-10.89011379 41.8421699 -11.43188703 43.42596224 -12 45 C-12.26039062 45.74121094 -12.52078125 46.48242188 -12.7890625 47.24609375 C-14 49 -14 49 -16.3125 49.64453125 C-17.199375 49.69996094 -18.08625 49.75539062 -19 49.8125 C-20.3303125 49.91498047 -20.3303125 49.91498047 -21.6875 50.01953125 C-24 50 -24 50 -26 49 C-24.96293517 46.06164964 -23.81247946 43.72174372 -22.0625 41.125 C-20.32938194 38.49906355 -19.14771233 36.07168447 -17.97265625 33.17578125 C-14.25245931 24.85389491 -9.44779228 16.95386958 -5 9 C-4.06206126 7.31274382 -3.12455425 5.62524756 -2.1875 3.9375 C-1.465625 2.638125 -0.74375 1.33875 0 0 Z M2 15 C1.47599609 16.04800781 1.47599609 16.04800781 0.94140625 17.1171875 C-0.70572917 20.41145833 -2.35286458 23.70572917 -4 27 C-1.36 27 1.28 27 4 27 C3.67 23.04 3.34 19.08 3 15 C2.67 15 2.34 15 2 15 Z " fill="#FF770D" transform="translate(54,198)"/>
<path d="M0 0 C1.37478516 0.01740234 1.37478516 0.01740234 2.77734375 0.03515625 C3.69644531 0.04417969 4.61554688 0.05320313 5.5625 0.0625 C6.27277344 0.07410156 6.98304688 0.08570313 7.71484375 0.09765625 C7.86107178 1.14219971 8.0072998 2.18674316 8.15795898 3.26293945 C8.70117615 7.13785467 9.24809853 11.01223938 9.79614258 14.88647461 C10.03283181 16.5634154 10.26851566 18.24049841 10.50317383 19.91772461 C10.84061767 22.32834349 11.18167249 24.73842795 11.5234375 27.1484375 C11.62764511 27.89853592 11.73185272 28.64863434 11.83921814 29.42146301 C12.2693892 32.43395969 12.75007675 35.20335526 13.71484375 38.09765625 C14.37484375 37.43765625 15.03484375 36.77765625 15.71484375 36.09765625 C18.21484375 36.22265625 18.21484375 36.22265625 20.71484375 37.09765625 C22.02734375 39.16015625 22.02734375 39.16015625 22.71484375 41.09765625 C24.69484375 41.09765625 26.67484375 41.09765625 28.71484375 41.09765625 C29.73134614 37.43536397 30.72659092 33.76766791 31.71484375 30.09765625 C31.9778125 29.13730469 32.24078125 28.17695313 32.51171875 27.1875 C34.26476931 20.54200733 35.41005634 13.945474 36.28515625 7.12890625 C36.71484375 4.09765625 36.71484375 4.09765625 37.71484375 0.09765625 C41.34484375 0.09765625 44.97484375 0.09765625 48.71484375 0.09765625 C47.46415171 7.21698016 46.05796922 14.27620611 44.48828125 21.33203125 C43.94074901 23.99779427 43.46654215 26.61433041 43.06640625 29.30078125 C40.88772765 43.523391 40.88772765 43.523391 34.71484375 48.09765625 C30.29387542 50.92216379 24.80304666 50.66579713 19.71484375 50.09765625 C17.23433446 48.93333556 15.62058423 48.00339673 13.71484375 46.09765625 C13.71484375 47.08765625 13.71484375 48.07765625 13.71484375 49.09765625 C10.08484375 49.09765625 6.45484375 49.09765625 2.71484375 49.09765625 C2.38484375 44.47765625 2.05484375 39.85765625 1.71484375 35.09765625 C-4.44318714 34.78215699 -4.44318714 34.78215699 -10.28515625 36.09765625 C-13.15246739 39.79258978 -14.68059447 43.73426294 -16.28515625 48.09765625 C-17.28515625 49.09765625 -17.28515625 49.09765625 -19.7890625 49.1953125 C-20.79839844 49.18371094 -21.80773437 49.17210937 -22.84765625 49.16015625 C-23.85957031 49.15113281 -24.87148438 49.14210937 -25.9140625 49.1328125 C-26.69652344 49.12121094 -27.47898437 49.10960937 -28.28515625 49.09765625 C-27.30345103 45.52781909 -26.04146005 42.55630004 -24.03515625 39.47265625 C-21.26435284 35.20675657 -19.06099243 30.73737006 -16.8203125 26.17578125 C-14.44277526 21.40860734 -11.85832165 16.76110512 -9.28515625 12.09765625 C-7.68368863 9.13736761 -6.08280911 6.17677152 -4.484375 3.21484375 C-2.72949116 0.11664492 -2.72949116 0.11664492 0 0 Z M-0.28515625 16.09765625 C-1.34652736 17.71764373 -2.35948157 19.36950957 -3.34765625 21.03515625 C-3.89550781 21.95167969 -4.44335938 22.86820313 -5.0078125 23.8125 C-6.36647653 25.80681618 -6.36647653 25.80681618 -6.28515625 27.09765625 C-3.64515625 27.09765625 -1.00515625 27.09765625 1.71484375 27.09765625 C1.38484375 23.46765625 1.05484375 19.83765625 0.71484375 16.09765625 C0.38484375 16.09765625 0.05484375 16.09765625 -0.28515625 16.09765625 Z " fill="#FF7A13" transform="translate(328.28515625,197.90234375)"/>
<path d="M0 0 C3.3 0 6.6 0 10 0 C9.37574057 6.45068082 8.33978367 12.6583573 7 19 C11.62 19 16.24 19 21 19 C22.44755587 14.6573324 23.62813379 10.56558587 24.625 6.125 C24.88539063 4.97257813 25.14578125 3.82015625 25.4140625 2.6328125 C25.60742188 1.76398438 25.80078125 0.89515625 26 0 C29.3 0 32.6 0 36 0 C35.04546897 10.07243939 33.30922116 19.67142123 30.76489258 29.46362305 C29.44600881 34.64363032 28.61902128 39.63826274 28.23071289 44.97314453 C28 47 28 47 27 49 C19.82105263 50.27368421 19.82105263 50.27368421 16 49 C16.64389063 46.0620618 17.29002779 43.124649 17.9375 40.1875 C18.11990234 39.35412109 18.30230469 38.52074219 18.49023438 37.66210938 C18.66748047 36.85966797 18.84472656 36.05722656 19.02734375 35.23046875 C19.18968506 34.49207764 19.35202637 33.75368652 19.51928711 32.99291992 C20 31 20 31 21 28 C15.72 28 10.44 28 5 28 C4.72285156 29.43214844 4.44570312 30.86429688 4.16015625 32.33984375 C3.79447247 34.20576869 3.42857609 36.07165198 3.0625 37.9375 C2.88009766 38.88302734 2.69769531 39.82855469 2.50976562 40.80273438 C2.33251953 41.70185547 2.15527344 42.60097656 1.97265625 43.52734375 C1.81031494 44.35999756 1.64797363 45.19265137 1.48071289 46.05053711 C1 48 1 48 0 49 C-1.51928038 49.07179964 -3.04167482 49.08392007 -4.5625 49.0625 C-5.38878906 49.05347656 -6.21507813 49.04445312 -7.06640625 49.03515625 C-7.70449219 49.02355469 -8.34257813 49.01195312 -9 49 C-10 47 -10 47 -9.12060547 44.24682617 C-8.75080566 43.17537354 -8.38100586 42.1039209 -8 41 C-7.64486263 39.02452763 -7.33646265 37.04019768 -7.0703125 35.05078125 C-6.0003031 27.6853056 -4.47122065 20.45450455 -2.875 13.1875 C-2.45927734 11.27227539 -2.45927734 11.27227539 -2.03515625 9.31835938 C-1.36025005 6.21146359 -0.68181845 3.10538479 0 0 Z " fill="#FF7911" transform="translate(112,198)"/>
<path d="M0 0 C3.63 0 7.26 0 11 0 C10.51171875 2.37630208 10.0234375 4.75260417 9.53515625 7.12890625 C8.9239963 10.40775709 8.45333316 13.69597727 8 17 C8.81984375 16.10796875 9.6396875 15.2159375 10.484375 14.296875 C11.57287192 13.11454214 12.66141608 11.93225277 13.75 10.75 C14.28882813 10.16347656 14.82765625 9.57695312 15.3828125 8.97265625 C16.43939524 7.82587743 17.50147703 6.68413766 18.56933594 5.54785156 C19.75375558 4.26641461 20.88461068 2.93570277 22 1.59375 C24.79489315 -0.63343048 26.73167523 -0.40297064 30.25 -0.25 C31.32765625 -0.21390625 32.4053125 -0.1778125 33.515625 -0.140625 C34.33546875 -0.09421875 35.1553125 -0.0478125 36 0 C34.64054005 3.06715595 33.11992465 5.07741042 30.6875 7.375 C28.36939581 9.61583405 26.21348333 11.86663969 24.1875 14.375 C22 17 22 17 20 18 C20.33750395 24.75007903 21.99297897 29.81693658 24.72265625 35.98046875 C26.51628835 40.22046145 27.79260196 44.5630576 29 49 C28.67 49.33 28.34 49.66 28 50 C26.30858344 49.91036938 24.62040398 49.75422324 22.9375 49.5625 C22.01839844 49.46066406 21.09929687 49.35882813 20.15234375 49.25390625 C19.44207031 49.17011719 18.73179687 49.08632812 18 49 C17.0394728 46.62586674 16.08152647 44.25074481 15.125 41.875 C14.85558594 41.20984375 14.58617187 40.5446875 14.30859375 39.859375 C12.73487073 35.9442592 11.290046 32.02043463 10 28 C7.57717626 29.22694279 6.24398465 30.4089785 5.20117188 32.93505859 C4.48297811 35.33978003 3.8493637 37.75046458 3.25 40.1875 C3.02957031 41.03248047 2.80914062 41.87746094 2.58203125 42.74804688 C2.04132165 44.82860339 1.51886947 46.91388956 1 49 C-2.3 49 -5.6 49 -9 49 C-9.4550725 42.14423381 -7.75413847 35.93892602 -6.125 29.3125 C-4.28631024 21.75099831 -2.60985854 14.24204795 -1.42529297 6.54760742 C-1.05750159 4.34444836 -0.54173905 2.16695619 0 0 Z " fill="#FF7910" transform="translate(401,198)"/>
<path d="M0 0 C3.46679688 0.04882812 3.46679688 0.04882812 6.93359375 0.09765625 C8.71348238 10.5992083 9.33422263 20.84774871 9.55859375 31.47265625 C9.59690761 32.9987169 9.6359663 34.52475903 9.67578125 36.05078125 C9.77026786 39.73290039 9.85480673 43.41516367 9.93359375 47.09765625 C8.28359375 47.09765625 6.63359375 47.09765625 4.93359375 47.09765625 C4.59486862 45.68226908 4.26284751 44.26527662 3.93359375 42.84765625 C3.74796875 42.05875 3.56234375 41.26984375 3.37109375 40.45703125 C2.93359375 38.09765625 2.93359375 38.09765625 2.93359375 34.09765625 C-2.01640625 34.09765625 -6.96640625 34.09765625 -12.06640625 34.09765625 C-12.72640625 36.07765625 -13.38640625 38.05765625 -14.06640625 40.09765625 C-15.31230665 42.81681113 -16.6913984 45.43930774 -18.06640625 48.09765625 C-21.36640625 48.09765625 -24.66640625 48.09765625 -28.06640625 48.09765625 C-22.51515223 36.82167152 -16.55542377 25.76665808 -10.515625 14.74609375 C-9.47126153 12.83752654 -8.43293136 10.92565352 -7.3984375 9.01171875 C-6.85574219 8.00882813 -6.31304687 7.0059375 -5.75390625 5.97265625 C-5.26277344 5.06257812 -4.77164062 4.1525 -4.265625 3.21484375 C-2.51191106 0.11871035 -2.51191106 0.11871035 0 0 Z M-0.06640625 16.09765625 C-1.12777736 17.71764373 -2.14073157 19.36950957 -3.12890625 21.03515625 C-3.67675781 21.95167969 -4.22460938 22.86820313 -4.7890625 23.8125 C-6.14772653 25.80681618 -6.14772653 25.80681618 -6.06640625 27.09765625 C-3.42640625 27.09765625 -0.78640625 27.09765625 1.93359375 27.09765625 C1.60359375 23.46765625 1.27359375 19.83765625 0.93359375 16.09765625 C0.60359375 16.09765625 0.27359375 16.09765625 -0.06640625 16.09765625 Z " fill="#FF760B" transform="translate(328.06640625,197.90234375)"/>
<path d="M0 0 C0.66 0 1.32 0 2 0 C3.65 12.54 5.3 25.08 7 38 C7.99 37.34 8.98 36.68 10 36 C12.125 36.1875 12.125 36.1875 14 37 C14.33 37.99 14.66 38.98 15 40 C17.34533951 40.76956136 17.34533951 40.76956136 20 41 C27.10842015 35.37682256 27.25936948 22.71064274 28.625 14.5 C29.05120141 11.96816069 29.48069993 9.4368734 29.9140625 6.90625 C30.0992041 5.79572266 30.2843457 4.68519531 30.47509766 3.54101562 C31 1 31 1 32 0 C35.33327842 -0.1424478 38.66453893 -0.04222103 42 0 C41.48695727 7.01974246 40.29714555 13.62326966 38.5625 20.4375 C37.14695215 26.08087028 35.83887114 31.59184164 35.125 37.375 C34.34754317 42.11522225 32.27389392 44.57994026 28.75390625 47.7578125 C24.18939321 50.99058566 18.34525206 50.60085315 13 50 C9.8125 48 9.8125 48 8 46 C7.67 46.99 7.34 47.98 7 49 C3.7 49 0.4 49 -3 49 C-3 48.67 -3 48.34 -3 48 C-0.36 48 2.28 48 5 48 C4.979375 47.05125 4.95875 46.1025 4.9375 45.125 C5 42 5 42 6 40 C5.34 40 4.68 40 4 40 C2.22644561 26.67915496 0.572881 13.43307162 0 0 Z " fill="#FF7911" transform="translate(63,198)"/>
<path d="M0 0 C12.21 0 24.42 0 37 0 C38 2 38 2 37.3125 5.0625 C36.879375 6.031875 36.44625 7.00125 36 8 C33.09945791 9.10436395 30.32725693 9.10775378 27.25 9.0625 C26.45078125 9.05347656 25.6515625 9.04445312 24.828125 9.03515625 C24.22484375 9.02355469 23.6215625 9.01195312 23 9 C20.68950091 18.26442841 18.66388478 27.40023018 17.4375 36.8828125 C16.86070985 40.99244235 15.97331082 44.96771231 15 49 C11.08263419 50.1700097 8.02040985 49.69584017 4 49 C4.99286959 43.06891063 6.16681052 37.20062135 7.52148438 31.34277344 C9.24668801 23.87208118 10.56110532 16.68065697 11 9 C7.04 8.67 3.08 8.34 -1 8 C-0.67 5.36 -0.34 2.72 0 0 Z " fill="#FF760B" transform="translate(10,198)"/>
<path d="M0 0 C12.21 0 24.42 0 37 0 C36.67 2.64 36.34 5.28 36 8 C32.84493858 8.93619813 30.03413498 9.1057123 26.75 9.0625 C25.85796875 9.05347656 24.9659375 9.04445312 24.046875 9.03515625 C23.37140625 9.02355469 22.6959375 9.01195312 22 9 C21.85900879 9.82612793 21.71801758 10.65225586 21.57275391 11.50341797 C21.04083527 14.61607862 20.50764314 17.72851789 19.97363281 20.84082031 C19.63250403 22.831216 19.29279848 24.82185544 18.953125 26.8125 C15.38014482 47.61985518 15.38014482 47.61985518 14 49 C12.31391034 49.07205511 10.62499341 49.08386068 8.9375 49.0625 C8.01839844 49.05347656 7.09929687 49.04445312 6.15234375 49.03515625 C5.44207031 49.02355469 4.73179687 49.01195312 4 49 C5.15090912 39.08843941 7.11824324 29.45772421 9.32299805 19.73413086 C9.53867432 18.77643799 9.75435059 17.81874512 9.9765625 16.83203125 C10.17330566 15.97327393 10.37004883 15.1145166 10.57275391 14.22973633 C11.09409462 11.88731699 11.09409462 11.88731699 11 9 C6.71 8.67 2.42 8.34 -2 8 C-1.34 5.36 -0.68 2.72 0 0 Z " fill="#FF760B" transform="translate(233,198)"/>
<path d="M0 0 C12.21 0 24.42 0 37 0 C36.67 2.64 36.34 5.28 36 8 C32.84493858 8.93619813 30.03413498 9.1057123 26.75 9.0625 C25.85796875 9.05347656 24.9659375 9.04445312 24.046875 9.03515625 C23.37140625 9.02355469 22.6959375 9.01195312 22 9 C21.89977539 9.64324219 21.79955078 10.28648437 21.69628906 10.94921875 C19.67477181 23.8025847 17.4695128 36.45069837 14 49 C10.7 49 7.4 49 4 49 C5.15090912 39.08843941 7.11824324 29.45772421 9.32299805 19.73413086 C9.53867432 18.77643799 9.75435059 17.81874512 9.9765625 16.83203125 C10.17330566 15.97327393 10.37004883 15.1145166 10.57275391 14.22973633 C11.09409462 11.88731699 11.09409462 11.88731699 11 9 C10.14535156 8.95101562 9.29070312 8.90203125 8.41015625 8.8515625 C6.75306641 8.73941406 6.75306641 8.73941406 5.0625 8.625 C3.96035156 8.55539063 2.85820312 8.48578125 1.72265625 8.4140625 C0.82417969 8.27742187 -0.07429688 8.14078125 -1 8 C-1.33 7.34 -1.66 6.68 -2 6 C-1.34 4.02 -0.68 2.04 0 0 Z " fill="#FF7A12" transform="translate(282,198)"/>
<path d="M0 0 C3.63 0 7.26 0 11 0 C10.09227844 5.1221431 9.1869659 10.21983628 8.01953125 15.2890625 C6.96479857 19.97692696 6.25078178 24.6844324 5.5625 29.4375 C4.54879437 36.18216182 3.226743 42.53184177 1 49 C-2.3 49 -5.6 49 -9 49 C-7.80388034 39.69883073 -5.86586743 30.63199975 -3.82861328 21.48583984 C-2.25210343 14.3414321 -0.98498795 7.25309311 0 0 Z " fill="#FF7A13" transform="translate(155,198)"/>
<path d="M0 0 C3.3 0 6.6 0 10 0 C8.85796837 10.65239846 6.5340095 20.97889965 4.12060547 31.40356445 C2.77430612 37.26825995 1.59604358 43.01013 1 49 C-2.63 49 -6.26 49 -10 49 C-9.5420038 46.49863616 -9.08382117 43.99730639 -8.625 41.49609375 C-8.19208286 39.0744635 -7.7765759 36.64968059 -7.375 34.22265625 C-5.45247157 22.67909035 -2.80890417 11.35774297 0 0 Z " fill="#FF7910" transform="translate(384,198)"/>
<path d="M0 0 C0.66 0 1.32 0 2 0 C1.89042969 0.53625 1.78085937 1.0725 1.66796875 1.625 C1.32259294 3.33222351 0.98349494 5.04072148 0.6484375 6.75 C0.17376092 9.12910192 -0.32435664 11.50355976 -0.8359375 13.875 C-2.42801139 21.45794204 -3.47081233 28.29185391 -2 36 C0.76498104 51.17667368 -1.90594462 65.35891693 -10.4921875 78.23828125 C-17.83843702 88.30975236 -26.38177652 93.12725884 -38 97 C-41.37039354 97.25550881 -44.74593325 97.23138255 -48.125 97.25 C-49.03765625 97.270625 -49.9503125 97.29125 -50.890625 97.3125 C-57.13427328 97.34807634 -62.21851958 96.35957003 -68 94 C-65.13742672 93.12770224 -64.21061215 92.92929449 -61.265625 93.91796875 C-57.38079071 95.20516863 -53.7962578 95.3441361 -49.75 95.3125 C-48.99710693 95.30686035 -48.24421387 95.3012207 -47.46850586 95.29541016 C-36.63306018 95.05993302 -27.20898889 91.59560088 -19.0625 84.25390625 C-5.80305917 70.01776554 -4.71484601 55.81027996 -5.04101562 37.43994141 C-5.25152381 24.41890232 -4.60368072 12.34623465 0 0 Z " fill="#FFECDD" transform="translate(281,65)"/>
<path d="M0 0 C0.66 0 1.32 0 2 0 C1.61670318 3.16219874 0.92159721 5.12880459 -0.75 7.875 C-6.27984102 17.20660672 -9.33473335 28.1869703 -8 39 C-7.34561559 41.00405227 -6.67939174 43.00428677 -6 45 C-4.98519733 52.23046899 -5.91281836 57.4372053 -9.94921875 63.53515625 C-12.28912917 66.34750572 -14.84967293 68.61849444 -17.625 71 C-23.57345313 76.17960544 -26.43109644 80.80401418 -27.29296875 88.67578125 C-27.43583592 93.26794042 -27.0279052 96.81744553 -25 101 C-25 101.99 -25 102.98 -25 104 C-25.66 104 -26.32 104 -27 104 C-30.04623599 96.20016189 -30.87193559 86.15316108 -27.97265625 78.171875 C-24.85192678 73.22711806 -20.48465595 69.5989595 -16.0546875 65.84765625 C-11.61927142 61.85915471 -9.25678377 57.61885969 -8.83203125 51.6328125 C-8.77646102 46.28751313 -8.77646102 46.28751313 -10 41.125 C-14.17802536 28.06867076 -8.14565671 15.81793746 -2.28686523 4.36767578 C-1.52990073 2.90900869 -0.76575397 1.45407214 0 0 Z " fill="#FFEAD9" transform="translate(228,35)"/>
<path d="M0 0 C0.33 0 0.66 0 1 0 C1.14622803 1.04454346 1.29245605 2.08908691 1.44311523 3.1652832 C1.9863324 7.04019842 2.53325478 10.91458313 3.08129883 14.78881836 C3.31798806 16.46575915 3.55367191 18.14284216 3.78833008 19.82006836 C4.12577392 22.23068724 4.46682874 24.6407717 4.80859375 27.05078125 C4.91280136 27.80087967 5.01700897 28.55097809 5.12437439 29.32380676 C5.55454545 32.33630344 6.035233 35.10569901 7 38 C7.66 37.34 8.32 36.68 9 36 C11.625 36.375 11.625 36.375 14 37 C14.495 38.98 14.495 38.98 15 41 C14.34 41 13.68 41 13 41 C12.67 40.34 12.34 39.68 12 39 C10.02 39.495 10.02 39.495 8 40 C7.29925156 43.153368 7 45.72724974 7 49 C3.37 49 -0.26 49 -4 49 C-4.33 44.38 -4.66 39.76 -5 35 C-11.15803089 34.68450074 -11.15803089 34.68450074 -17 36 C-19.86731114 39.69493353 -21.39543822 43.63660669 -23 48 C-24 49 -24 49 -26.50390625 49.09765625 C-27.51324219 49.08605469 -28.52257812 49.07445312 -29.5625 49.0625 C-30.57441406 49.05347656 -31.58632813 49.04445312 -32.62890625 49.03515625 C-33.41136719 49.02355469 -34.19382812 49.01195312 -35 49 C-35 48.67 -35 48.34 -35 48 C-31.7 48 -28.4 48 -25 48 C-24.7525 47.175 -24.505 46.35 -24.25 45.5 C-22.80456411 41.45277952 -20.97371935 37.81585741 -19 34 C-14.05 34 -9.1 34 -4 34 C-3.34 38.29 -2.68 42.58 -2 47 C-0.35 47 1.3 47 3 47 C2.8453125 45.76636719 2.690625 44.53273437 2.53125 43.26171875 C1.76836758 36.39980628 1.62229405 29.51529193 1.39453125 22.61914062 C1.21295482 17.65083381 0.91301202 12.89706447 0 8 C-0.11196073 5.32189925 -0.04625299 2.68267314 0 0 Z " fill="#FFBD8A" transform="translate(335,198)"/>
<path d="M0 0 C1.32 0.33 2.64 0.66 4 1 C3.5225864 6.15208847 0.83252915 9.48541459 -2 13.625 C-6.24879357 20.10622307 -8.43350302 25.09185396 -8 33 C-8.01714243 34.39588354 -8.03747633 35.7917355 -8.0625 37.1875 C-8.041875 38.115625 -8.02125 39.04375 -8 40 C-9.89213369 37.61426621 -11.02391783 35.92824652 -12 33 C-12.66 34.32 -13.32 35.64 -14 37 C-15.34512759 25.75323874 -11.93451273 19.05066368 -6 10 C-4.82539376 8.04641849 -3.65769511 6.08865032 -2.5 4.125 C-1.66823606 2.74905008 -0.83557689 1.37363776 0 0 Z " fill="#FF7C16" transform="translate(232,103)"/>
<path d="M0 0 C0.33 0.99 0.66 1.98 1 3 C-0.1796875 5.12109375 -0.1796875 5.12109375 -1.875 7.4375 C-5.77161142 12.79307523 -6.68742809 17.36631891 -6 24 C-5.53909866 25.61583435 -5.03666518 27.22022453 -4.5 28.8125 C-2.12465583 36.17606693 -1.75848802 44.00892526 -4.890625 51.21875 C-8.07054136 56.3245312 -13.45391375 59.90481186 -19 62 C-21.375 61.6875 -21.375 61.6875 -23 61 C-23 60.67 -23 60.34 -23 60 C-22.13375 59.7525 -21.2675 59.505 -20.375 59.25 C-14.5788452 57.103276 -10.46892037 54.13914129 -7 49 C-4.88215624 42.53426509 -5.08281708 34.75410064 -7.5 28.4375 C-9.78884931 22.31178737 -10.44734522 16.28155944 -7.7578125 10.18359375 C-5.52677396 6.37084878 -3.23155499 3.02776324 0 0 Z " fill="#FFE4D0" transform="translate(258,56)"/>
<path d="M0 0 C0.66 0 1.32 0 2 0 C3.68641259 10.97992621 5.26379637 21.86312322 5.7890625 32.96875 C5.98178654 35.73826585 6.44822451 38.28598235 7 41 C7.11678799 43.67678073 7.0454506 46.31841457 7 49 C3.7 49 0.4 49 -3 49 C-3 48.67 -3 48.34 -3 48 C-0.36 48 2.28 48 5 48 C4.80664062 47.030625 4.61328125 46.06125 4.4140625 45.0625 C1.46115497 29.99222722 -0.36791677 15.37074508 0 0 Z " fill="#FFB277" transform="translate(226,198)"/>
<path d="M0 0 C0.66 0 1.32 0 2 0 C1.67 2.64 1.34 5.28 1 8 C-2.15506142 8.93619813 -4.96586502 9.1057123 -8.25 9.0625 C-9.14203125 9.05347656 -10.0340625 9.04445312 -10.953125 9.03515625 C-11.62859375 9.02355469 -12.3040625 9.01195312 -13 9 C-13.14099121 9.82612793 -13.28198242 10.65225586 -13.42724609 11.50341797 C-13.95916473 14.61607862 -14.49235686 17.72851789 -15.02636719 20.84082031 C-15.36749597 22.831216 -15.70720152 24.82185544 -16.046875 26.8125 C-19.61985518 47.61985518 -19.61985518 47.61985518 -21 49 C-22.68608966 49.07205511 -24.37500659 49.08386068 -26.0625 49.0625 C-26.98160156 49.05347656 -27.90070313 49.04445312 -28.84765625 49.03515625 C-29.55792969 49.02355469 -30.26820313 49.01195312 -31 49 C-31 48.67 -31 48.34 -31 48 C-28.36 48 -25.72 48 -23 48 C-22.96841797 47.45867432 -22.93683594 46.91734863 -22.90429688 46.35961914 C-22.32468551 38.90322403 -20.72488299 31.74031879 -18.98876953 24.4831543 C-18.49384721 22.41174863 -18.00994467 20.33797926 -17.52734375 18.26367188 C-15.1436549 8.1436549 -15.1436549 8.1436549 -14 7 C-11.64686445 6.92728259 -9.29166332 6.91629132 -6.9375 6.9375 C-5.64714844 6.94652344 -4.35679687 6.95554688 -3.02734375 6.96484375 C-2.02832031 6.97644531 -1.02929688 6.98804688 0 7 C0 4.69 0 2.38 0 0 Z " fill="#FFDCC2" transform="translate(268,198)"/>
<path d="M0 0 C2.5625 2.125 2.5625 2.125 5 5 C4.7363299 12.37262174 -0.10631358 16.92916656 -5 22 C-19.39371728 34.36057583 -36.55063791 37.69766495 -55 37 C-55 36.67 -55 36.34 -55 36 C-53.69546875 35.90203125 -52.3909375 35.8040625 -51.046875 35.703125 C-32.17707314 34.14886491 -16.76869124 29.68299399 -3 16 C-1.7315625 14.7625 -1.7315625 14.7625 -0.4375 13.5 C1.68468232 9.80924814 1.34119548 7.230824 1 3 C0.505 1.515 0.505 1.515 0 0 Z " fill="#FFF2E9" transform="translate(282,146)"/>
<path d="M0 0 C1.485 0.495 1.485 0.495 3 1 C2.34 3.31 1.68 5.62 1 8 C-1.99480917 8.8723412 -4.63575911 9.10829766 -7.75 9.0625 C-8.54921875 9.05347656 -9.3484375 9.04445312 -10.171875 9.03515625 C-10.77515625 9.02355469 -11.3784375 9.01195312 -12 9 C-14.31049909 18.26442841 -16.33611522 27.40023018 -17.5625 36.8828125 C-18.13929015 40.99244235 -19.02668918 44.96771231 -20 49 C-23.91736581 50.1700097 -26.97959015 49.69584017 -31 49 C-30.67 48.01 -30.34 47.02 -30 46 C-30 46.66 -30 47.32 -30 48 C-27.36 48 -24.72 48 -22 48 C-21.81244141 46.07607422 -21.81244141 46.07607422 -21.62109375 44.11328125 C-21.05984631 39.06797255 -20.10478687 34.15233045 -19.0625 29.1875 C-17.5472526 21.80854657 -16.17502723 14.44183912 -15 7 C-10.05 7 -5.1 7 0 7 C0 4.69 0 2.38 0 0 Z " fill="#FFE6D4" transform="translate(45,198)"/>
<path d="M0 0 C0.66 0 1.32 0 2 0 C3.65 12.54 5.3 25.08 7 38 C7.99 37.34 8.98 36.68 10 36 C12.1875 36.375 12.1875 36.375 14 37 C13.67 37.99 13.34 38.98 13 40 C11.68 39.67 10.36 39.34 9 39 C8.855625 39.721875 8.71125 40.44375 8.5625 41.1875 C8.04166667 43.79166667 7.52083333 46.39583333 7 49 C3.7 49 0.4 49 -3 49 C-3 48.67 -3 48.34 -3 48 C-0.36 48 2.28 48 5 48 C4.979375 47.05125 4.95875 46.1025 4.9375 45.125 C5 42 5 42 6 40 C5.34 40 4.68 40 4 40 C2.22644561 26.67915496 0.572881 13.43307162 0 0 Z " fill="#FFE0C9" transform="translate(63,198)"/>
<path d="M0 0 C0.66 0 1.32 0 2 0 C1.48695727 7.01974246 0.29714555 13.62326966 -1.4375 20.4375 C-2.85304785 26.08087028 -4.16112886 31.59184164 -4.875 37.375 C-5.65245683 42.11522225 -7.72610608 44.57994026 -11.24609375 47.7578125 C-14.57150071 50.1130005 -17.61534403 50.16122067 -21.5625 50.1875 C-22.53316406 50.20167969 -23.50382812 50.21585938 -24.50390625 50.23046875 C-27 50 -27 50 -29 48 C-28.34773438 48.03480469 -27.69546875 48.06960937 -27.0234375 48.10546875 C-21.56497882 48.27453605 -17.64798977 48.20932627 -13 45 C-5.28794448 37.72863337 -4.73754733 24.31339657 -2.8125 14.375 C-2.53756262 12.97517132 -2.26217508 11.57543098 -1.98632812 10.17578125 C-1.31903505 6.78485501 -0.65780998 3.39278026 0 0 Z " fill="#FFE5D2" transform="translate(103,198)"/>
<path d="M0 0 C0.66 0 1.32 0 2 0 C1.67 2.64 1.34 5.28 1 8 C-2.15506142 8.93619813 -4.96586502 9.1057123 -8.25 9.0625 C-9.14203125 9.05347656 -10.0340625 9.04445312 -10.953125 9.03515625 C-11.62859375 9.02355469 -12.3040625 9.01195312 -13 9 C-13.10022461 9.64324219 -13.20044922 10.28648437 -13.30371094 10.94921875 C-15.32522819 23.8025847 -17.5304872 36.45069837 -21 49 C-24.3 49 -27.6 49 -31 49 C-31 48.67 -31 48.34 -31 48 C-28.03 48 -25.06 48 -22 48 C-22.04898437 46.73027344 -22.09796875 45.46054688 -22.1484375 44.15234375 C-22.14630942 38.71190451 -20.98993056 33.80367998 -19.625 28.5625 C-19.17785816 26.79343012 -18.73253884 25.02389857 -18.2890625 23.25390625 C-18.0715332 22.39297363 -17.85400391 21.53204102 -17.62988281 20.64501953 C-16.78308265 17.08911529 -16.10100939 13.50888996 -15.44287109 9.91381836 C-15 8 -15 8 -14 7 C-11.64686445 6.92728259 -9.29166332 6.91629132 -6.9375 6.9375 C-5.64714844 6.94652344 -4.35679687 6.95554688 -3.02734375 6.96484375 C-2.02832031 6.97644531 -1.02929688 6.98804688 0 7 C0 4.69 0 2.38 0 0 Z " fill="#FFDCC1" transform="translate(317,198)"/>
<path d="M0 0 C0.66 0 1.32 0 2 0 C1.74027735 6.66621462 -0.82187782 9.94561297 -5.125 14.875 C-6.31697866 16.28858002 -7.50838973 17.70263886 -8.69921875 19.1171875 C-9.55845947 20.12410645 -9.55845947 20.12410645 -10.43505859 21.15136719 C-12.32946584 23.38919115 -14.14621575 25.67901318 -15.9375 28 C-16.45828125 28.6703125 -16.9790625 29.340625 -17.515625 30.03125 C-18.570532 31.43038981 -19.5992602 32.84943678 -20.609375 34.28125 C-21.13015625 35.0134375 -21.6509375 35.745625 -22.1875 36.5 C-22.85845703 37.47453125 -22.85845703 37.47453125 -23.54296875 38.46875 C-25.28517264 40.29969887 -26.53722355 40.62029999 -29 41 C-26.32842016 36.91690519 -23.54194081 32.99375114 -20.5625 29.125 C-20.14291016 28.57835693 -19.72332031 28.03171387 -19.29101562 27.46850586 C-16.76222434 24.19727097 -14.17370551 20.98553975 -11.52734375 17.80859375 C-10.94202881 17.1026709 -10.35671387 16.39674805 -9.75366211 15.66943359 C-8.60730975 14.292151 -7.45345126 12.92107246 -6.29125977 11.55712891 C-3.20412309 7.84542158 -1.18405999 4.78804259 0 0 Z " fill="#FFE1CB" transform="translate(202,198)"/>
<path d="M0 0 C0.66 0 1.32 0 2 0 C0.85796837 10.65239846 -1.4659905 20.97889965 -3.87939453 31.40356445 C-5.22569388 37.26825995 -6.40395642 43.01013 -7 49 C-10.63 49 -14.26 49 -18 49 C-17.67 48.01 -17.34 47.02 -17 46 C-17 46.66 -17 47.32 -17 48 C-14.36 48 -11.72 48 -9 48 C-8.90203125 47.00484375 -8.8040625 46.0096875 -8.703125 44.984375 C-7.11092456 29.77083523 -4.43805093 14.65901671 0 0 Z " fill="#FFE1CB" transform="translate(392,198)"/>
<path d="M0 0 C0.66 0 1.32 0 2 0 C0.76488827 7.12005588 -0.65730024 14.18046346 -2.2265625 21.234375 C-2.77409474 23.90013802 -3.2483016 26.51667416 -3.6484375 29.203125 C-5.8271161 43.42573475 -5.8271161 43.42573475 -12 48 C-16.41686908 50.82188858 -21.91584105 50.57509339 -27 50 C-30.125 48.5 -30.125 48.5 -32 47 C-29 47 -29 47 -26 48 C-20.74234055 48.39680449 -17.43897158 47.89498146 -13 45 C-7.27006042 39.68823924 -6.59452496 33.95266955 -5.375 26.4375 C-4.96393599 24.10516913 -4.55119348 21.77313342 -4.13671875 19.44140625 C-3.94384277 18.32910645 -3.7509668 17.21680664 -3.55224609 16.07080078 C-2.57979466 10.66342051 -1.32731793 5.33085413 0 0 Z " fill="#FFEBDD" transform="translate(375,198)"/>
<path d="M0 0 C0.66 0 1.32 0 2 0 C1.89042969 0.53625 1.78085937 1.0725 1.66796875 1.625 C1.32259294 3.33222351 0.98349494 5.04072148 0.6484375 6.75 C0.17376092 9.12910192 -0.32435664 11.50355976 -0.8359375 13.875 C-2.42801139 21.45794204 -3.47081233 28.29185391 -2 36 C-0.30102315 45.12735007 -0.21010742 54.1072174 -3 63 C-3.33 63 -3.66 63 -4 63 C-3.99476318 62.36497559 -3.98952637 61.72995117 -3.98413086 61.07568359 C-3.96323744 58.17546595 -3.95030066 55.2752642 -3.9375 52.375 C-3.92912109 51.37597656 -3.92074219 50.37695312 -3.91210938 49.34765625 C-3.8958086 44.42482312 -4.07685969 39.85003717 -5 35 C-5.68435507 22.88850684 -4.23870143 11.36742656 0 0 Z " fill="#FFF5ED" transform="translate(281,65)"/>
<path d="M0 0 C0.66 0 1.32 0 2 0 C1.7107506 1.64625988 1.41843946 3.29198182 1.125 4.9375 C0.96257812 5.85402344 0.80015625 6.77054688 0.6328125 7.71484375 C0.14292485 10.25802594 -0.39953124 12.76651988 -0.98046875 15.2890625 C-2.03520143 19.97692696 -2.74921822 24.6844324 -3.4375 29.4375 C-4.45120563 36.18216182 -5.773257 42.53184177 -8 49 C-11.3 49 -14.6 49 -18 49 C-18 48.67 -18 48.34 -18 48 C-15.36 48 -12.72 48 -10 48 C-9.90348145 47.42854248 -9.80696289 46.85708496 -9.70751953 46.26831055 C-8.03700651 36.72498342 -5.9394184 27.27638118 -3.875 17.8125 C-3.49852849 16.08011494 -3.12222508 14.34769333 -2.74609375 12.61523438 C-1.83266603 8.40973261 -0.91696725 4.20473136 0 0 Z " fill="#FFECDE" transform="translate(164,198)"/>
<path d="M0 0 C-1.35945995 3.06715595 -2.88007535 5.07741042 -5.3125 7.375 C-7.63060419 9.61583405 -9.78651667 11.86663969 -11.8125 14.375 C-14 17 -14 17 -16 18 C-15.65993733 24.80125332 -14.0025895 29.92460943 -11.15625 36.10546875 C-9.96556882 39.08619427 -9.41383021 41.82573418 -9 45 C-11.72396709 43.63801645 -11.8441978 42.30642648 -12.91015625 39.484375 C-13.26013672 38.56269531 -13.61011719 37.64101562 -13.97070312 36.69140625 C-14.51114258 35.23541016 -14.51114258 35.23541016 -15.0625 33.75 C-15.42666016 32.79480469 -15.79082031 31.83960938 -16.16601562 30.85546875 C-19.57200884 21.80220028 -19.57200884 21.80220028 -20 18 C-17.98046875 15.61328125 -17.98046875 15.61328125 -15 13 C-13.9039879 11.89797869 -12.81711217 10.78681518 -11.73828125 9.66796875 C-10.59641694 8.50775071 -9.45448901 7.34759529 -8.3125 6.1875 C-7.73177734 5.59001953 -7.15105469 4.99253906 -6.55273438 4.37695312 C-2.22580357 0 -2.22580357 0 0 0 Z " fill="#FFE2CD" transform="translate(437,198)"/>
<path d="M0 0 C0.66 0 1.32 0 2 0 C1.04546897 10.07243939 -0.69077884 19.67142123 -3.23510742 29.46362305 C-4.55399119 34.64363032 -5.38097872 39.63826274 -5.76928711 44.97314453 C-6 47 -6 47 -7 49 C-14.17894737 50.27368421 -14.17894737 50.27368421 -18 49 C-17.67 48.34 -17.34 47.68 -17 47 C-14.36 47.33 -11.72 47.66 -9 48 C-8.83673218 46.83271362 -8.83673218 46.83271362 -8.67016602 45.6418457 C-7.46496113 37.38855843 -5.82044184 29.31026372 -3.9375 21.1875 C-2.30692111 14.1372992 -0.71809044 7.20750037 0 0 Z " fill="#FFEBDD" transform="translate(146,198)"/>
<path d="M0 0 C4.95 0 9.9 0 15 0 C14.67 0.66 14.34 1.32 14 2 C12.91332031 1.82597656 12.91332031 1.82597656 11.8046875 1.6484375 C8.62351155 1.35152774 6.12322881 1.28354504 3 2 C-0.56763681 5.72543613 -2.38631474 10.15894421 -4 15 C-13.3035333 16.05163702 -22.40924764 15.95732226 -31.75 15.5625 C-33.14059971 15.50910279 -34.53122488 15.45636464 -35.921875 15.40429688 C-39.28155688 15.27597569 -42.64083406 15.14108497 -46 15 C-46 13.35 -46 11.7 -46 10 C-45.67 11.32 -45.34 12.64 -45 14 C-32.13 14 -19.26 14 -6 14 C-5.67 12.35 -5.34 10.7 -5 9 C-4.67 8.34 -4.34 7.68 -4 7 C-3.34 7 -2.68 7 -2 7 C-1.34 4.69 -0.68 2.38 0 0 Z " fill="#FFDDC3" transform="translate(207,232)"/>
<path d="M0 0 C0.33 0 0.66 0 1 0 C0.64466708 6.27754819 -1.10365412 10.93456619 -3.84375 16.58203125 C-6.3169643 21.75405711 -6.18348329 26.19311575 -6.1875 31.8125 C-6.19974609 32.70259766 -6.21199219 33.59269531 -6.22460938 34.50976562 C-6.23551969 39.41576934 -5.92467424 43.39751812 -4 48 C-4.66 48 -5.32 48 -6 48 C-9.1115078 42.04648507 -9.3741794 37.21115854 -9.1875 30.5625 C-9.17396484 29.64017578 -9.16042969 28.71785156 -9.14648438 27.76757812 C-9.11140953 25.51109617 -9.06226387 23.25586774 -9 21 C-8.34 21 -7.68 21 -7 21 C-6.9175 20.05125 -6.835 19.1025 -6.75 18.125 C-5.8479013 11.70571798 -2.93493027 5.7250882 0 0 Z " fill="#FFDBC0" transform="translate(273,30)"/>
<path d="M0 0 C0.66 0.33 1.32 0.66 2 1 C1.5225864 6.15208847 -1.16747085 9.48541459 -4 13.625 C-8.24879357 20.10622307 -10.43350302 25.09185396 -10 33 C-10.01714243 34.39588354 -10.03747633 35.7917355 -10.0625 37.1875 C-10.041875 38.115625 -10.02125 39.04375 -10 40 C-13.56349134 35.9745746 -13.44895503 32.92685836 -13.27734375 27.73046875 C-12.55957974 20.66403152 -8.43827438 15.47092796 -4.65234375 9.66796875 C-2.70626111 6.52571239 -1.30338333 3.45013234 0 0 Z " fill="#FFE6D4" transform="translate(234,103)"/>
<path d="M0 0 C0 0.99 0 1.98 0 3 C-1.68961269 4.5876533 -3.45317371 6.09728694 -5.25 7.5625 C-11.29790388 12.78958255 -14.41604626 17.66655583 -15.29296875 25.67578125 C-15.43583592 30.26794042 -15.0279052 33.81744553 -13 38 C-13 38.99 -13 39.98 -13 41 C-13.66 41 -14.32 41 -15 41 C-18.05620323 33.17464092 -18.79861409 23.24901662 -16.04296875 15.20703125 C-12.14589133 8.86164582 -5.87327578 4.42063284 0 0 Z " fill="#FFEEE1" transform="translate(216,98)"/>
<path d="M0 0 C1.12080094 3.36240283 0.93568182 3.78467681 -0.375 6.875 C-2.54444547 12.33328517 -3.0469849 16.86875191 -2.96875 22.70703125 C-3.01197417 25.87860494 -3.46823576 28.8758851 -4 32 C-4.66 32 -5.32 32 -6 32 C-6.42202683 21.44932929 -6.77124842 11.75145662 -2 2 C-1.34 1.34 -0.68 0.68 0 0 Z " fill="#FFE1CA" transform="translate(269,92)"/>
<path d="M0 0 C0.99 0.33 1.98 0.66 3 1 C2.01 1.495 2.01 1.495 1 2 C1.061875 3.8253125 1.061875 3.8253125 1.125 5.6875 C1.21409263 8.31573268 1.0272358 9.93267926 0.03125 12.39453125 C-1.13603109 15.34368461 -1.40748267 17.8419706 -1.625 21 C-1.73714844 22.5159375 -1.73714844 22.5159375 -1.8515625 24.0625 C-1.98561622 26.71535253 -2.02928883 29.34447967 -2 32 C-3.5 30.9375 -3.5 30.9375 -5 29 C-5.1875 25.3125 -5.1875 25.3125 -5 22 C-5.66 22 -6.32 22 -7 22 C-7 21.34 -7 20.68 -7 20 C-6.34 20 -5.68 20 -5 20 C-2.8915995 13.39367844 -1.23416987 6.82423338 0 0 Z " fill="#FFDBBF" transform="translate(198,83)"/>
<path d="M0 0 C4.95 0 9.9 0 15 0 C14.67 0.66 14.34 1.32 14 2 C9.71 2 5.42 2 1 2 C0.54625 3.4025 0.0925 4.805 -0.375 6.25 C-0.89011379 7.8421699 -1.43188703 9.42596224 -2 11 C-2.26039062 11.74121094 -2.52078125 12.48242188 -2.7890625 13.24609375 C-4 15 -4 15 -6.3125 15.64453125 C-7.199375 15.69996094 -8.08625 15.75539062 -9 15.8125 C-9.886875 15.88082031 -10.77375 15.94914063 -11.6875 16.01953125 C-14 16 -14 16 -16 15 C-15.67 14.34 -15.34 13.68 -15 13 C-12.03 13.33 -9.06 13.66 -6 14 C-5.87625 13.2575 -5.7525 12.515 -5.625 11.75 C-5.04513299 9.19858515 -4.26291261 7.2732427 -3 5 C-2.34 5 -1.68 5 -1 5 C-0.67 3.35 -0.34 1.7 0 0 Z " fill="#FFE3CE" transform="translate(44,232)"/>
<path d="M0 0 C5.61 0 11.22 0 17 0 C17 0.33 17 0.66 17 1 C12.05 1 7.1 1 2 1 C1.72285156 2.43214844 1.44570312 3.86429688 1.16015625 5.33984375 C0.79447247 7.20576869 0.42857609 9.07165198 0.0625 10.9375 C-0.11990234 11.88302734 -0.30230469 12.82855469 -0.49023438 13.80273438 C-0.66748047 14.70185547 -0.84472656 15.60097656 -1.02734375 16.52734375 C-1.18968506 17.35999756 -1.35202637 18.19265137 -1.51928711 19.05053711 C-2 21 -2 21 -3 22 C-4.51928038 22.07179964 -6.04167482 22.08392007 -7.5625 22.0625 C-8.38878906 22.05347656 -9.21507813 22.04445312 -10.06640625 22.03515625 C-11.02353516 22.01775391 -11.02353516 22.01775391 -12 22 C-12 21.67 -12 21.34 -12 21 C-9.36 21 -6.72 21 -4 21 C-4.061875 19.700625 -4.061875 19.700625 -4.125 18.375 C-3.99279528 14.8054725 -3.18460677 12.35638584 -2 9 C-1.27352287 6.0106448 -0.63847913 3.00997302 0 0 Z " fill="#FFEADA" transform="translate(115,225)"/>
<path d="M0 0 C-1 3 -1 3 -4 5 C-4.86566741 6.90712541 -4.86566741 6.90712541 -5.38671875 9.1328125 C-5.7105957 10.34130859 -5.7105957 10.34130859 -6.04101562 11.57421875 C-6.25435547 12.41597656 -6.46769531 13.25773438 -6.6875 14.125 C-6.91244141 14.97449219 -7.13738281 15.82398438 -7.36914062 16.69921875 C-7.92299712 18.7968029 -8.46284206 20.89807763 -9 23 C-12.3 23 -15.6 23 -19 23 C-19 22.67 -19 22.34 -19 22 C-16.03 22 -13.06 22 -10 22 C-10.061875 20.5459375 -10.061875 20.5459375 -10.125 19.0625 C-10.07403583 12.76842536 -9.52543573 7.11746281 -5 2.4375 C-2 0 -2 0 0 0 Z " fill="#FFE9D9" transform="translate(411,224)"/>
<path d="M0 0 C0.33 0 0.66 0 1 0 C2.89446549 11.73292188 4.54072832 23.08394997 4 35 C2.23025917 31.90677734 1.65820831 29.39895554 1.3671875 25.859375 C1.28339844 24.87066406 1.19960937 23.88195312 1.11328125 22.86328125 C1.03464844 21.83589844 0.95601562 20.80851562 0.875 19.75 C0.78863281 18.73808594 0.70226562 17.72617188 0.61328125 16.68359375 C0.15724043 11.10252272 -0.09376154 5.59890356 0 0 Z " fill="#FFE5D1" transform="translate(227,198)"/>
<path d="M0 0 C4.21912747 0.4794463 6.79663178 1.16625119 10 4 C9.67 4.99 9.34 5.98 9 7 C2.375 7.25 2.375 7.25 -1 5 C-0.67 3.35 -0.34 1.7 0 0 Z " fill="#FFA55F" transform="translate(204,172)"/>
<path d="M0 0 C0.33 0 0.66 0 1 0 C1.33 3.96 1.66 7.92 2 12 C3.65 11.01 5.3 10.02 7 9 C9.3125 9.3125 9.3125 9.3125 11 10 C10.67 10.99 10.34 11.98 10 13 C8.68 12.67 7.36 12.34 6 12 C5.855625 12.721875 5.71125 13.44375 5.5625 14.1875 C5.04166667 16.79166667 4.52083333 19.39583333 4 22 C0.7 22 -2.6 22 -6 22 C-6 21.67 -6 21.34 -6 21 C-3.36 21 -0.72 21 2 21 C1.979375 20.05125 1.95875 19.1025 1.9375 18.125 C2 15 2 15 3 13 C2.34 13 1.68 13 1 13 C-0.10228696 8.59085217 -0.07654536 4.51617599 0 0 Z " fill="#FFBF8E" transform="translate(66,225)"/>
<path d="M0 0 C0.66 0 1.32 0 2 0 C1.51600146 3.99298796 0.05261591 6.7957078 -2.01171875 10.21875 C-3.38805429 12.69941801 -4.20555721 15.28565379 -5 18 C-5.66 18 -6.32 18 -7 18 C-7.66 20.64 -8.32 23.28 -9 26 C-10.1379774 21.44809038 -9.7023888 20.52218776 -7.875 16.375 C-7.41480469 15.32570313 -6.95460937 14.27640625 -6.48046875 13.1953125 C-4.41854002 8.74502833 -2.26245942 4.35162408 0 0 Z " fill="#FFD9BB" transform="translate(228,35)"/>
<path d="M0 0 C4.62 0 9.24 0 14 0 C14 0.33 14 0.66 14 1 C12.80503906 0.89945313 12.80503906 0.89945313 11.5859375 0.796875 C8.05416576 0.74531629 5.36476041 0.88555706 2 2 C-0.86731114 5.69493353 -2.39543822 9.63660669 -4 14 C-5 15 -5 15 -7.50390625 15.09765625 C-9.01791016 15.08025391 -9.01791016 15.08025391 -10.5625 15.0625 C-11.57441406 15.05347656 -12.58632813 15.04445312 -13.62890625 15.03515625 C-14.41136719 15.02355469 -15.19382812 15.01195312 -16 15 C-16 14.67 -16 14.34 -16 14 C-12.7 14 -9.4 14 -6 14 C-5.7525 13.175 -5.505 12.35 -5.25 11.5 C-3.80456411 7.45277952 -1.97371935 3.81585741 0 0 Z " fill="#FFEEE2" transform="translate(316,232)"/>
<path d="M0 0 C0.66 0 1.32 0 2 0 C1.62516335 5.24771309 -0.09311309 8.56193952 -4 12 C-11.53556731 17.23862968 -11.53556731 17.23862968 -15.27734375 16.62890625 C-16.13005859 16.31759766 -16.13005859 16.31759766 -17 16 C-17 15.67 -17 15.34 -17 15 C-16.13375 14.7525 -15.2675 14.505 -14.375 14.25 C-8.5788452 12.103276 -4.46892037 9.13914129 -1 4 C-0.22166466 1.81785432 -0.22166466 1.81785432 0 0 Z " fill="#FFE8D6" transform="translate(252,101)"/>
<path d="M0 0 C0.33 0 0.66 0 1 0 C1 1.65 1 3.3 1 5 C6.94 5 12.88 5 19 5 C18.67 5.99 18.34 6.98 18 8 C12.06 7.67 6.12 7.34 0 7 C-1.04449911 3.86650268 -0.93423645 3.01031744 0 0 Z " fill="#FFB67E" transform="translate(171,199)"/>
<path d="M0 0 C0.33 0 0.66 0 1 0 C1.49600126 23.75294902 1.49600126 23.75294902 -3 31 C-3.99 31.33 -4.98 31.66 -6 32 C-5.05738479 29.10482473 -4.10406164 26.25097219 -2.9375 23.4375 C-0.9657719 18.31100694 -0.73334379 13.11453599 -0.4375 7.6875 C-0.37272461 6.57665039 -0.37272461 6.57665039 -0.30664062 5.44335938 C-0.20129568 3.62908536 -0.10021684 1.8145645 0 0 Z " fill="#FFCBA2" transform="translate(277,106)"/>
<path d="M0 0 C0.99 0 1.98 0 3 0 C1.83445193 6.0509304 0.54656904 12.03466226 -1 18 C-1.66 18 -2.32 18 -3 18 C-2.6919856 15.37440156 -2.37879818 12.74960194 -2.0625 10.125 C-1.97548828 9.37863281 -1.88847656 8.63226563 -1.79882812 7.86328125 C-1.11328125 2.2265625 -1.11328125 2.2265625 0 0 Z " fill="#FFDBC0" transform="translate(409,198)"/>
<path d="M0 0 C0.33 0.99 0.66 1.98 1 3 C-0.14453125 5.26171875 -0.14453125 5.26171875 -1.8125 7.6875 C-2.35519531 8.49574219 -2.89789063 9.30398437 -3.45703125 10.13671875 C-3.96621094 10.75160156 -4.47539062 11.36648437 -5 12 C-5.66 12 -6.32 12 -7 12 C-7.33 15.96 -7.66 19.92 -8 24 C-8.33 24 -8.66 24 -9 24 C-9.88898968 15.34058196 -8.30087855 9.9130679 -3 3 C-2.02384011 1.97671515 -1.0320113 0.96692951 0 0 Z " fill="#FFCDA5" transform="translate(258,56)"/>
<path d="M0 0 C0.33 0 0.66 0 1 0 C0.8595017 2.7920301 0.71284617 5.58349796 0.5625 8.375 C0.50352539 9.56609375 0.50352539 9.56609375 0.44335938 10.78125 C0.11328125 16.7734375 0.11328125 16.7734375 -1 19 C-8.17894737 20.27368421 -8.17894737 20.27368421 -12 19 C-11.67 18.34 -11.34 17.68 -11 17 C-8.36 17.33 -5.72 17.66 -3 18 C-2.86722656 17.11957031 -2.73445312 16.23914063 -2.59765625 15.33203125 C-2.42105469 14.17058594 -2.24445313 13.00914062 -2.0625 11.8125 C-1.88847656 10.66394531 -1.71445313 9.51539063 -1.53515625 8.33203125 C-1.08620687 5.53674788 -0.57917838 2.77066414 0 0 Z " fill="#FFE0C9" transform="translate(140,228)"/>
<path d="M0 0 C0.33 0.99 0.66 1.98 1 3 C-0.36328125 5.41015625 -0.36328125 5.41015625 -2.3125 8.0625 C-3.26576172 9.37927734 -3.26576172 9.37927734 -4.23828125 10.72265625 C-6 13 -6 13 -8 15 C-8.99 14.67 -9.98 14.34 -11 14 C-7.37 9.38 -3.74 4.76 0 0 Z " fill="#FFDEC6" transform="translate(184,224)"/>
<path d="M0 0 C0.99 0.33 1.98 0.66 3 1 C2.34 3.31 1.68 5.62 1 8 C-2.41139003 9.09651823 -5.20655581 8.94215473 -8.75 8.5625 C-9.73484375 8.46066406 -10.7196875 8.35882813 -11.734375 8.25390625 C-12.48203125 8.17011719 -13.2296875 8.08632812 -14 8 C-14.33 9.98 -14.66 11.96 -15 14 C-15.93423645 10.98968256 -16.04449911 10.13349732 -15 7 C-10.05 7 -5.1 7 0 7 C0 4.69 0 2.38 0 0 Z " fill="#FFC89E" transform="translate(45,198)"/>
<path d="M0 0 C0.33 0 0.66 0 1 0 C1.22084624 6.09781001 1.01167675 11.21642935 -1 17 C-4.3 17 -7.6 17 -11 17 C-11 16.67 -11 16.34 -11 16 C-8.36 16 -5.72 16 -3 16 C-2.86722656 15.26394531 -2.73445312 14.52789062 -2.59765625 13.76953125 C-2.33275391 12.30580078 -2.33275391 12.30580078 -2.0625 10.8125 C-1.88847656 9.84957031 -1.71445313 8.88664063 -1.53515625 7.89453125 C-1.0476265 5.25760028 -0.53328895 2.6280095 0 0 Z " fill="#FFDCC1" transform="translate(157,230)"/>
<path d="M0 0 C3.17845871 3.42102529 3.35620641 5.84407277 3.25 10.4375 C3.23453125 11.54996094 3.2190625 12.66242188 3.203125 13.80859375 C3.02299301 16.63874445 2.63918668 19.24221877 2 22 C1.67 22 1.34 22 1 22 C-0.17700048 17.37540756 -0.11408412 12.92133538 -0.0625 8.1875 C-0.05573242 7.00510742 -0.05573242 7.00510742 -0.04882812 5.79882812 C-0.03711312 3.86585239 -0.01917998 1.93291607 0 0 Z " fill="#FF9746" transform="translate(260,106)"/>
<path d="M0 0 C0.66 0 1.32 0 2 0 C1.37679879 6.43974581 0.35991738 12.67572401 -1 19 C-1.66 19 -2.32 19 -3 19 C-2.58955515 12.42208127 -2.13391403 6.25948114 0 0 Z " fill="#FFE0C9" transform="translate(120,198)"/>
<path d="M0 0 C-3.20336822 2.83374881 -5.78087253 3.5205537 -10 4 C-10.33 4.99 -10.66 5.98 -11 7 C-12.65 6.67 -14.3 6.34 -16 6 C-15.01 5.67 -14.02 5.34 -13 5 C-12.67 4.01 -12.34 3.02 -12 2 C-7.92532275 0.51117562 -4.33458585 -0.26270217 0 0 Z " fill="#FFEBDB" transform="translate(212,167)"/>
<path d="M0 0 C1 4 1 4 0 6 C3.96 6 7.92 6 12 6 C11.67 6.99 11.34 7.98 11 9 C6.71 8.67 2.42 8.34 -2 8 C-1.34 5.36 -0.68 2.72 0 0 Z " fill="#FFA762" transform="translate(233,198)"/>
<path d="M0 0 C2.5625 2.125 2.5625 2.125 5 5 C5 9.29120806 3.81709332 11.81545972 1 15 C0.01 14.67 -0.98 14.34 -2 14 C-1.505 13.67 -1.01 13.34 -0.5 13 C1.80706461 9.92391386 1.39054667 6.72521439 1 3 C0.67 2.01 0.34 1.02 0 0 Z " fill="#FFE1CA" transform="translate(282,146)"/>
<path d="M0 0 C0.66 0 1.32 0 2 0 C1.40722419 4.74220651 -0.43477195 8.99293688 -3 13 C-3.99 13.66 -4.98 14.32 -6 15 C-5.39644592 11.14974121 -4.23227397 8.13898841 -2.4375 4.6875 C-1.98246094 3.80449219 -1.52742188 2.92148438 -1.05859375 2.01171875 C-0.53458984 1.01591797 -0.53458984 1.01591797 0 0 Z " fill="#FFDDC3" transform="translate(55,210)"/>
<path d="M0 0 C0.33 0 0.66 0 1 0 C1 1.98 1 3.96 1 6 C4.63 6 8.26 6 12 6 C11.67 6.99 11.34 7.98 11 9 C7.04 8.67 3.08 8.34 -1 8 C-0.67 5.36 -0.34 2.72 0 0 Z " fill="#FFA662" transform="translate(10,198)"/>
<path d="M0 0 C0.33 0 0.66 0 1 0 C1.45510807 6.67491831 -0.2327574 12.59374557 -2 19 C-2.33 19 -2.66 19 -3 19 C-2.88534579 16.77027727 -2.75785234 14.54121247 -2.625 12.3125 C-2.55539062 11.07113281 -2.48578125 9.82976562 -2.4140625 8.55078125 C-2.03577906 5.30682228 -1.38020024 2.93432815 0 0 Z " fill="#FFF0E5" transform="translate(300,220)"/>
<path d="M0 0 C0.99 0 1.98 0 3 0 C1.68448876 4.60428934 -0.09196486 8.18320388 -3 12 C-3.66 12 -4.32 12 -5 12 C-3.68938409 7.76570244 -2.05643741 3.92592596 0 0 Z " fill="#FFDABF" transform="translate(325,213)"/>
<path d="M0 0 C0.66 0 1.32 0 2 0 C1.51679152 6.2054142 0.66681876 11.99945246 -1 18 C-1.33 18 -1.66 18 -2 18 C-2.23268915 11.71739294 -1.40454548 6.11980533 0 0 Z " fill="#FFEEE2" transform="translate(103,198)"/>
<path d="M0 0 C0.66 0.33 1.32 0.66 2 1 C0.35 4.96 -1.3 8.92 -3 13 C-3.99 13 -4.98 13 -6 13 C-5.37935063 11.39414507 -4.7533082 9.79037383 -4.125 8.1875 C-3.77695313 7.29417969 -3.42890625 6.40085938 -3.0703125 5.48046875 C-2 3 -2 3 0 0 Z " fill="#FFDFC6" transform="translate(218,211)"/>
<path d="M0 0 C0.99655157 2.9896547 1.04589823 4.77386812 0.9375 7.875 C0.88648526 11.76912517 1.28062559 14.45379028 3 18 C3 18.99 3 19.98 3 21 C2.34 21 1.68 21 1 21 C-0.68961017 16.5923213 -1.24721636 12.9621638 -1.1875 8.25 C-1.17783203 6.55617188 -1.17783203 6.55617188 -1.16796875 4.828125 C-1 2 -1 2 0 0 Z " fill="#FFF0E4" transform="translate(200,118)"/>
<path d="M0 0 C0.99 0.33 1.98 0.66 3 1 C2.91231752 2.5843317 2.80412671 4.16753567 2.6875 5.75 C2.62949219 6.63171875 2.57148438 7.5134375 2.51171875 8.421875 C1.9358819 11.32303774 0.92403852 12.79225607 -1 15 C-1.02693575 12.87506859 -1.04636628 10.75004088 -1.0625 8.625 C-1.07410156 7.44164062 -1.08570313 6.25828125 -1.09765625 5.0390625 C-1 2 -1 2 0 0 Z " fill="#FF913C" transform="translate(219,125)"/>
<path d="M0 0 C0.66 0 1.32 0 2 0 C1.63118644 6.14689273 0.09949571 8.69027374 -4 13 C-4.75 11.25 -4.75 11.25 -5 9 C-3.68870078 7.64499081 -2.35308313 6.31328657 -1 5 C-0.20318682 2.35815459 -0.20318682 2.35815459 0 0 Z " fill="#FFEBDC" transform="translate(202,198)"/>
<path d="M0 0 C0.66 0 1.32 0 2 0 C1.56802365 4.7517398 0.67230705 6.92000054 -3 10 C-4 7 -4 7 -3.22265625 5.17578125 C-2.1484375 3.45052083 -1.07421875 1.72526042 0 0 Z " fill="#FF882B" transform="translate(232,103)"/>
<path d="M0 0 C1.39195915 4.17587745 -0.17676781 6.13474776 -2 10 C-2.66 10 -3.32 10 -4 10 C-4.33 10.66 -4.66 11.32 -5 12 C-4.52389341 7.00088076 -2.96837781 4.02167317 0 0 Z " fill="#FFE2CD" transform="translate(204,108)"/>
<path d="M0 0 C2.51005664 3.76508495 2.0258295 6.39461609 1.625 10.6875 C1.56828125 11.38939453 1.5115625 12.09128906 1.453125 12.81445312 C1.31195359 14.54380285 1.15728041 16.27204088 1 18 C0.67 18 0.34 18 0 18 C0 13.71 0 9.42 0 5 C-0.99 4.67 -1.98 4.34 -3 4 C-2 2 -2 2 0 0 Z " fill="#FFAA68" transform="translate(198,113)"/>
<path d="M0 0 C0.99 0 1.98 0 3 0 C3 4.62 3 9.24 3 14 C2.67 14 2.34 14 2 14 C1.92652344 13.04287109 1.92652344 13.04287109 1.8515625 12.06640625 C1.77679688 11.24011719 1.70203125 10.41382813 1.625 9.5625 C1.55539062 8.73878906 1.48578125 7.91507813 1.4140625 7.06640625 C1.27742188 6.38449219 1.14078125 5.70257813 1 5 C0.34 4.67 -0.32 4.34 -1 4 C-0.67 2.68 -0.34 1.36 0 0 Z " fill="#FF9F55" transform="translate(327,209)"/>
<path d="M0 0 C0.66 0 1.32 0 2 0 C1.74379316 1.6065676 1.46944129 3.2102483 1.1875 4.8125 C1.03667969 5.70582031 0.88585937 6.59914063 0.73046875 7.51953125 C-0.05395393 10.18321256 -0.88627799 11.25690322 -3 13 C-2.343621 8.51474352 -1.29925791 4.33085971 0 0 Z " fill="#FFDDC3" transform="translate(281,65)"/>
<path d="M0 0 C1.13643966 3.40931897 0.86747764 4.00335456 -0.4375 7.1875 C-0.72496094 7.90292969 -1.01242187 8.61835937 -1.30859375 9.35546875 C-1.53675781 9.89816406 -1.76492188 10.44085938 -2 11 C-2.66 11 -3.32 11 -4 11 C-3.56179109 6.44262737 -3.14958831 3.42346555 0 0 Z " fill="#FFDBC1" transform="translate(269,92)"/>
<path d="M0 0 C0.33 0 0.66 0 1 0 C0.125 7.75 0.125 7.75 -1 10 C-1.99 10 -2.98 10 -4 10 C-2.8905928 6.51329166 -1.73662334 3.22515763 0 0 Z " fill="#FFE6D3" transform="translate(273,30)"/>
<path d="M0 0 C0.99 0 1.98 0 3 0 C3.99 2.97 4.98 5.94 6 9 C5.34 9 4.68 9 4 9 C0 2.25 0 2.25 0 0 Z " fill="#FFD1AE" transform="translate(206,41)"/>
<path d="M0 0 C0.66 1.32 1.32 2.64 2 4 C1.67 4.33 1.34 4.66 1 5 C-0.69141656 4.91036938 -2.37959602 4.75422324 -4.0625 4.5625 C-5.44115234 4.40974609 -5.44115234 4.40974609 -6.84765625 4.25390625 C-7.55792969 4.17011719 -8.26820313 4.08632812 -9 4 C-9 3.67 -9 3.34 -9 3 C-6.03 3 -3.06 3 0 3 C0 2.01 0 1.02 0 0 Z " fill="#FFEADA" transform="translate(428,243)"/>
<path d="M0 0 C0.33 0 0.66 0 1 0 C1 1.65 1 3.3 1 5 C1.66 5 2.32 5 3 5 C2.67 7.64 2.34 10.28 2 13 C1.67 13 1.34 13 1 13 C-0.10228696 8.59085217 -0.07654536 4.51617599 0 0 Z " fill="#FF872B" transform="translate(66,233)"/>
<path d="M0 0 C2.97 1.98 2.97 1.98 6 4 C3 6 3 6 0 6 C0 4.02 0 2.04 0 0 Z " fill="#FFAD6E" transform="translate(196,150)"/>
<path d="M0 0 C0.33 0.99 0.66 1.98 1 3 C-0.65 4.65 -2.3 6.3 -4 8 C-3.50168276 4.31245243 -2.89932357 2.39509338 0 0 Z " fill="#FFEBDD" transform="translate(258,56)"/>
<path d="M0 0 C0.99 0.33 1.98 0.66 3 1 C2.34 3.31 1.68 5.62 1 8 C0.34 7.67 -0.32 7.34 -1 7 C-0.67 4.69 -0.34 2.38 0 0 Z " fill="#FFECDF" transform="translate(45,198)"/>
<path d="M0 0 C0.33 0 0.66 0 1 0 C1.25 2.75 1.25 2.75 1 6 C-1 8.375 -1 8.375 -3 10 C-3 6.13304322 -1.58090029 3.4911548 0 0 Z " fill="#FFDCC1" transform="translate(219,89)"/>
</svg>
